<?xml version="1.0" encoding="utf-8"?>
<!-- Generator: Adobe Illustrator 19.2.1, SVG Export Plug-In . SVG Version: 6.00 Build 0)  -->
<svg version="1.0" id="Layer_1" xmlns="http://www.w3.org/2000/svg" xmlns:xlink="http://www.w3.org/1999/xlink" x="0px" y="0px"
	 viewBox="0 0 147.7 139" style="enable-background:new 0 0 147.7 139;" xml:space="preserve">
<style type="text/css">
	.st0{fill:#FFFFFF;}
</style>
<g id="Layer_1_1_">
</g>
<g id="Layer_2">
	<path class="st0" d="M136.6,69.2c0,0-1.9,0.7-4.7,1.5s-5.7,1.1-8.7,0.5s-3.1-2.8-3.1-2.8s0-35.9,0-40.5s-6.6-15.2-19.7-15.2
		s-18.2,6.9-18.2,6.9s-6.7-6.9-17.7-6.9S46,20.5,46,20.5s-0.2-6.6,0-6.7c0.2-0.2-20.4,0-20.4,0s0,52.7,0,53.8s-0.2,2.7-1.2,3.8
		c-1,1-4.8,0.4-7.1,0s-7.2-2.7-7.2-2.7l-2.6,5.6c0,0,2.1,1.4,4.5,2.4s3.8,2,10.1,2s19.4-4.6,26.5-4.6s21.7,4.6,27.2,4.6
		s23-5.6,29.7-5.6s14.1,5.2,20.9,5.2c6.8,0,13-3.5,13-3.5L136.6,69.2z M61.6,69c0,0-3.6-1.6-7.5-2s-7.5-0.5-7.5-0.5V35.1
		c0,0,0.5-4.8,7.1-4.8s7.9,5.3,7.9,8.7S61.6,69,61.6,69z M98.6,39.7v26.7c0,0-3.7,0.2-7.7,0.5c-4,0.4-7.7,2-7.7,2s0-27.5,0-30.9
		s1.3-7.8,8.1-7.8C99.2,30.3,98.6,39.7,98.6,39.7z"/>
	<path class="st0" d="M53.5,93.7h14.2c0,0,0-13.3-20.9-13.3s-20.7,10.4-20.7,14c0,3.5,1.6,8.9,10,10.7c8.4,1.9,17.3,1.8,17.3,6.5
		s-6.7,5.3-9.5,3.4s-3-4.7-3-4.7H25.7c0,0,0.5,16,22,16s24-15.1,19.9-20.8S55.8,98,49.4,97.3c-4.8-0.5-9.5-1.8-7.6-6.1
		C42.9,88.2,53.3,88.6,53.5,93.7z"/>
	<path class="st0" d="M104.9,99.5h15.6c0,0-1.1-19.7-21.2-19.7s-23.5,17.1-23.5,24s4.5,22.5,22.6,22.5s21.8-17.3,21.8-17.3h-15.5
		c0,0-1.1,6.1-5.9,6.1s-6.2-3.2-6.2-8.5S92.4,95.9,94.3,94c3.1-3,7.5-2.3,9.2,0.6C105.2,97.3,104.9,99.5,104.9,99.5z"/>
</g>
</svg>
