<?xml version="1.0" encoding="utf-8"?>
<!-- Generator: Adobe Illustrator 19.2.1, SVG Export Plug-In . SVG Version: 6.00 Build 0)  -->
<svg version="1.0"
	 id="Layer_1" xmlns:cc="http://creativecommons.org/ns#" xmlns:dc="http://purl.org/dc/elements/1.1/" xmlns:rdf="http://www.w3.org/1999/02/22-rdf-syntax-ns#"
	 xmlns="http://www.w3.org/2000/svg" xmlns:xlink="http://www.w3.org/1999/xlink" x="0px" y="0px" viewBox="0 0 188.5 43.4"
	 style="enable-background:new 0 0 188.5 43.4;" xml:space="preserve">
<style type="text/css">
	.st0{fill:#FFFFFF;}
	.st1{fill:#69B8D6;}
</style>
<path class="st0" d="M57.7,12.6v18.2h4.2V20.3l4.7,10.6h4.3l4.6-10.6v10.6h4V12.6h-4.7l-6.1,13.7l-6.2-13.7
	C62.6,12.6,57.7,12.6,57.7,12.6z M89.4,12.6l-8.1,18.2H86l1.5-3.6H97l1.6,3.6h4.7l-8.2-18.2C95.2,12.6,89.4,12.6,89.4,12.6z
	 M105.2,12.6v18.2h17.5v-3.7h-13.3v-3.8h11.3v-3.6h-11.3v-3.6h13.2v-3.7L105.2,12.6L105.2,12.6z M126,12.6v18.2h4.3v-6.2h4.8l4,6.2
	h4.7l-4.2-6.4c0.1,0,0.3,0,0.4,0c2.4,0,3.7-1.3,3.7-2.7v-6.1c0-1.9-1.1-3.1-3.1-3.1L126,12.6L126,12.6z M150.1,12.6
	c-1.6,0-2.9,1.2-2.9,2.8v5.4c0,1.5,1.2,2.6,2.8,2.6h10.3v3.8h-9v-1.4h-4.2v2.4c0,1.6,0.9,2.7,2.8,2.7h1.4h10.4
	c1.8,0,2.8-1.1,2.8-2.9v-5.2c0-1.9-1.4-3-2.9-3h-10.3v-3.6h9v1.4h4.2v-2.2c0-1.7-1.1-2.9-2.7-2.9C161.9,12.6,150.1,12.6,150.1,12.6z
	 M168.7,12.6v18.3h4.3v-8.3l8.4,8.3h6.1l-10.2-9.8l9.8-8.5h-5.8l-8.2,7.3v-7.3L168.7,12.6L168.7,12.6z M92.2,16l3.4,7.8H89L92.2,16z
	 M130.3,16.2h9.2V21h-9.2V16.2z"/>
<path class="st1" d="M40.3,37.7c0,2.6-2.1,4.7-4.7,4.7H5.7c-2.6,0-4.7-2.1-4.7-4.7v-32C1,3.1,3.1,1,5.7,1h29.8
	c2.6,0,4.7,2.1,4.7,4.7L40.3,37.7L40.3,37.7z"/>
<path class="st0" d="M26.9,20.6l7.8-9.7l0,0l-11.2,5.4L20.7,4.2l0,0l-2.8,12.1L6.7,10.9l0,0l7.8,9.7L3.2,26l0,0h12.4l-2.8,12.1l0,0
	l7.8-9.7l7.8,9.7l0,0L25.6,26H38l0,0L26.9,20.6L26.9,20.6z"/>
</svg>
