<?xml version="1.0" encoding="utf-8"?>
<!-- Generator: Adobe Illustrator 19.2.1, SVG Export Plug-In . SVG Version: 6.00 Build 0)  -->
<svg version="1.1"
	 id="svg2" inkscape:version="0.48.4 r9939" sodipodi:docname="CMA-CGM.svg" xmlns:cc="http://creativecommons.org/ns#" xmlns:dc="http://purl.org/dc/elements/1.1/" xmlns:inkscape="http://www.inkscape.org/namespaces/inkscape" xmlns:rdf="http://www.w3.org/1999/02/22-rdf-syntax-ns#" xmlns:sodipodi="http://sodipodi.sourceforge.net/DTD/sodipodi-0.dtd" xmlns:svg="http://www.w3.org/2000/svg"
	 xmlns="http://www.w3.org/2000/svg" xmlns:xlink="http://www.w3.org/1999/xlink" x="0px" y="0px" viewBox="0 0 164.9 109.2"
	 style="enable-background:new 0 0 164.9 109.2;" xml:space="preserve">
<style type="text/css">
	.st0{fill:#FFFFFF;}
</style>
<sodipodi:namedview  bordercolor="#666666" borderopacity="1" gridtolerance="10" guidetolerance="10" id="namedview18" inkscape:current-layer="g12" inkscape:cx="99.251569" inkscape:cy="56.567515" inkscape:pageopacity="0" inkscape:pageshadow="2" inkscape:window-height="480" inkscape:window-maximized="0" inkscape:window-width="640" inkscape:window-x="10" inkscape:window-y="34" inkscape:zoom="1.9158772" objecttolerance="10" pagecolor="#ffffff" showgrid="false">
	</sodipodi:namedview>
<g id="g10" transform="matrix(1.25,0,0,-1.25,0,109.1875)">
	<g id="g12" transform="scale(0.1,0.1)">
		<path id="path20" class="st0" d="M302.1,768.7c80.5,54.7,181.8,94.1,304.2,104.8c26.8,0.9,27.9-11.2,20.7-24.9
			c-8-15.3-26.4-30.2-37.9-30.6c-202.9-10.9-332.4-87.9-440.2-202.1C177.3,665.7,231.3,720.6,302.1,768.7"/>
		<path id="path22" class="st0" d="M1017.8,105C937.3,50.2,836.1,10.9,713.7,0c-26.7-0.8-27.9,11.3-20.6,24.9
			c8,15.4,26.5,30.4,38,30.6c202.9,11,332.3,88,440.1,202.2C1142.6,207.8,1088.7,152.9,1017.8,105"/>
		<path id="path24" class="st0" d="M865.6,424.3l0.1-5.6c0.2-20.7,0.2-39.4-17-53.8c-17.2-14.3-38.3-14.1-60.5-14.4
			c-52-0.4-89.9,1.8-90.4,70.8l-0.4,49c-0.5,62.5,33.3,71.8,89.4,72.2c52.4,0.4,76.8-4.6,78.3-61.3v-7.4l-52.4-0.4v7.4
			c-1.9,16.8-13.9,18-31.3,17.9c-29-0.2-31.7-9-31.5-36l0.2-29.5c0.3-28.2,1.6-39.1,32.2-38.9c21.1,0.3,31.2,1.8,31,23.9v5.6
			L865.6,424.3"/>
		<path id="path26" class="st0" d="M1008.7,484.1c-1.2,19.2-17.7,18.8-33,18.6c-36.7-0.4-37.6-11.3-37.9-41.9l0.3-30.9
			c0.2-33.4,12-36.9,38.4-36.8c26,0.3,32.9,6.1,32.7,32.3l-35.2-0.3l-0.3,35l86.8,0.8l0.3-33.2c0.6-63.7-15.6-75.4-83.9-76
			c-60-0.4-90.7,9.4-91.2,70.6l-0.3,48.8c-0.5,62.5,33.9,72.1,90,72.5c49.4,0.4,84.5,0.5,85-59.5L1008.7,484.1"/>
		<path id="path28" class="st0" d="M1134.1,354.8l-50.9-0.5l-1.6,189.1l80.8,0.7l37.4-118.5h1.8l33.7,119l82.7,0.6l1.6-188.9
			l-51-0.5l3.9,144.9h-1.7l-47.2-145.4l-44-0.3l-50.1,144.5h-1.6L1134.1,354.8"/>
		<path id="path30" class="st0" d="M168.4,418.6v-5.5c0.3-20.6,0.1-39.3-17.1-53.9c-17.2-14.2-38.4-14.1-60.5-14.3
			c-52-0.3-89.9,1.9-90.5,70.8l-0.4,49c-0.5,62.4,33.1,71.8,89.3,72.2c52.5,0.4,76.9-4.6,78.4-61.3v-7.3l-52.5-0.4v7.4
			c-1.8,16.8-13.9,18-31.2,17.8c-29-0.2-31.7-9-31.5-35.9l0.3-29.5c0.2-28.2,1.7-39,32.1-38.8c21.2,0.3,31.3,1.8,31.3,23.9l-0.2,5.5
			L168.4,418.6"/>
		<path id="path32" class="st0" d="M240.4,347.6l-51-0.4l-1.5,189l80.7,0.6L306,418.5h1.8l33.6,118.9l82.8,0.6l1.6-188.9l-51-0.4
			l4,144.9h-1.9l-47.2-145.3l-44-0.4l-50.2,144.6l-1.5-0.1L240.4,347.6"/>
		<path id="path34" class="st0" d="M535.4,501.1H535L512.5,419l47.3,0.4L535.4,501.1z M501.8,382.1l-9.1-32.5l-53.1-0.4l55.8,189.5
			l77.4,0.6l59.6-188.5l-51.9-0.4l-10.2,32.4L501.8,382.1"/>
	</g>
</g>
</svg>
