<?xml version="1.0" encoding="utf-8"?>
<!-- Generator: Adobe Illustrator 19.2.1, SVG Export Plug-In . SVG Version: 6.00 Build 0)  -->
<svg version="1.0" id="Layer_1" xmlns="http://www.w3.org/2000/svg" xmlns:xlink="http://www.w3.org/1999/xlink" x="0px" y="0px"
	 viewBox="0 0 595.2 118" style="enable-background:new 0 0 595.2 118;" xml:space="preserve">
<style type="text/css">
	.st0{fill:#FFFFFF;}
</style>
<path class="st0" d="M478.6,90.1c4,3.3,7.4,6.1,11.1,9.1c-5.4,2.2-10.6,2.5-15.6,1c-7.4-2.3-14.7-5.2-21.9-8.2
	c-9.6-4.1-19.1-8.5-29.5-10.3c-16.4-2.9-31.8,0.5-46,8.7c-7.9,4.6-15.2,10.3-22.7,15.6c-1.3,0.9-2.4,1.9-4,3.3
	c-2.6-34.9-13.5-66.4-33-95.3c4.7-2.4,9.6-3.6,14.8-4.2c12.7-1.3,24.3,2.2,35.3,8.1c10.1,5.5,20,11.3,30.2,16.8
	c7.5,4,15.6,6.9,24.3,6.1c5-0.4,9.8-2,14.8-3.1c3.5,5.7,7,12,11.1,17.9C454.4,66,462.8,75.3,472,84c3.3,3.1,10.5,2.7,13.8-0.6
	c3.3-3.3,3.3-9.4-0.3-12.9c-2.3-2.2-5-3.9-7.6-5.6c-2.8-1.9-5.8-3.6-8.6-5.4c-6.2-4.2-8.7-9.2-7.4-14.8c1.4-6.3,6.6-10.9,13.7-11.8
	c5.2-0.7,10.3,0.1,15.1,2.4c0.8,0.4,2,1.5,1.9,2.1c-0.3,1.5-1.2,2.8-1.8,4.3c-0.9,0.1-1.8-0.7-2.4-1.4c-3.5-3.9-8.6-5.3-13.5-3.5
	c-5.5,2-7.1,7.9-3.2,12.2c1.7,1.9,4,3.4,6.2,4.9c3.9,2.7,8,5.1,11.9,7.8c5.8,4,8.8,9.5,6.8,16.6c-1.9,6.9-7,10.3-13.8,11.4
	C481.6,89.7,480.5,89.8,478.6,90.1z M321.5,16.4c8.6,12.6,15.2,25.5,20.6,39.1c5.3,13.5,9.3,27.5,11.6,42.4
	c8.4-28.8,28.3-39.8,56.7-38.9c-3.6-2.6-6.9-4.9-10.1-7.3c-12-9-23.5-18.7-36.9-25.6C350.4,19.4,336.8,15.8,321.5,16.4z M414.1,60.9
	c11,10.7,54.5,34.6,64,34.8c-16.3-15.2-30.1-32.2-41.5-52c-0.6,6.2-2.3,11.5-7.6,13.6C424.1,59.2,418.8,59.8,414.1,60.9z"/>
<path class="st0" d="M126.2,77.4c4.3-11.1,8.5-21.5,12.4-32.1c1.2-3.3,3.3-4.1,6.4-3.7c2.1,0.2,3.2,1.2,3.2,3.5
	c0,13.1,0,26.2,0,39.3c0,2.6-1.3,3.5-3.8,3.5c-2.5,0-4-0.7-4-3.6c0.1-10.8,0-21.5-0.4-32.5c-0.4,1-0.9,2-1.3,3
	c-4,9.9-8,19.8-12.1,29.6c-0.5,1.3-1.3,3.5-2.8,3.4c-1.2,0.1-2-2.1-2.4-3.4c-4-10.5-7.9-21.1-12.4-31.7c0,1,0,1.9,0,2.9
	c0,9.7,0.1,19.5-0.1,29.2c0,1-0.1,2.9-1.9,3c-1.6,0.1-1.9-2-1.9-2.9c-0.1-13.2-0.1-26.4-0.1-39.6c0-2,0.6-3.3,2.7-3.6
	c2.6-0.3,5-0.3,6.2,2.9c3.4,9.2,6.9,18.4,10.3,27.6C124.7,73.7,125.4,75.3,126.2,77.4z"/>
<path class="st0" d="M17.5,60.5c8.1,0,15.7,0,23.6,0c0.1-1.3,0.2-2.4,0.2-3.5c0-6.3,0.1-12.7,0-19c0-2.7,1.2-3.5,3.7-3.4
	c2.3,0,3.9,0.4,3.9,3.3c0,15.6,0,31.3,0,46.9c0,2.8-1.6,3.3-3.9,3.3c-2.3,0-3.6-0.8-3.6-3.3c0-5.7,0-11.4,0-17.1c0-1.1,0-2.3,0-3.5
	c-8.1,0-15.7,0-23.8,0c0,6.7,0,13.2,0,19.7c0,3.5-1.1,4.4-4.6,4.2c-2.1-0.1-3.1-1.1-3.1-3.2c0-15.7,0-31.5,0-47.2c0-2.9,2-3,4.2-3
	c2.3,0,3.6,0.8,3.6,3.3c0,6.3,0,12.7,0,19C17.5,58,17.5,59.1,17.5,60.5z"/>
<path class="st0" d="M183.9,63.2c1.8,0.9,3.3,1.6,4.7,2.4c7.4,4.5,7.2,15.5-0.5,19.5c-2.6,1.4-5.8,2.3-8.7,2.5
	c-5.5,0.4-11,0.2-16.5,0.2c-2.1,0-3-1.1-3-3.2c0-13.2,0-26.4,0-39.6c0-2.1,0.8-3.4,2.9-3.4c6.6,0.3,13.3,0.3,19.8,1.4
	c6.5,1.1,8.9,4.8,8.8,10.8c-0.1,3.8-1.7,6.4-5.1,8.1C185.6,62.4,184.9,62.7,183.9,63.2z M167.7,44.6c0,13.6,0,26.7,0,40.4
	c4-0.4,7.8-0.4,11.4-1.1c4.4-0.9,6.3-4,6.4-8.7c0.1-4.5-1.9-7.5-6.3-8.8c-2.2-0.7-4.6-0.7-6.8-1.4c-1.3-0.4-3.3-1.4-3.5-2.1
	c0-0.3-0.1-0.6,0.5-0.8c2.7-0.3,5.4-0.3,8.1-0.9c4.3-0.9,6.5-3.6,6.6-7.7c0-3.9-2-6.9-6.1-7.8C174.6,45.1,171.2,45,167.7,44.6z"/>
<path class="st0" d="M254.9,64.1c2.6-0.5,4.2-0.8,5.9-1.1c5.2-1.1,8-4.5,7.8-9.3c-0.2-5-2.9-7.7-8.5-8.4c-2.2-0.3-4.4-0.3-7.1-0.5
	c0,1.4,0,2.5,0,3.6c0,11.7,0,23.5,0,35.2c0,2.8-0.6,4.5-3.8,4.4c-3.2-0.1-3.9-0.8-3.9-4.3c0-12.6,0-25.2,0-37.7c0-2.9,0.8-4.3,4-4.1
	c4.8,0.3,9.7,0,14.6,0.3c8.3,0.6,12.9,5.3,12.7,12.4c-0.1,4.1-1.8,7.1-5.5,9c-2,1-4.1,1.6-6.5,2.6c4.3,5.4,8.7,10.7,12.8,16.1
	c1.1,1.4,4,5.6,2.6,5.6c-6,0-6.9,0.2-8.8-1.9c-4.2-5.5-8.3-10.9-12.5-16.4C257.5,67.9,256.4,66.3,254.9,64.1z"/>
<path class="st0" d="M549.1,64.9c0-6.4,0.1-12.9,0-19.3c0-2.7,0.9-3.9,3.7-3.7c6.7,0.5,13.6,0,20.1,1.4
	c11.5,2.5,17.6,11.3,16.8,22.7c-0.7,11.4-8.2,19.8-19.4,21.2c-5.9,0.7-12,0.6-18,0.7c-2.4,0.1-3.3-1.4-3.2-3.7
	C549.1,77.8,549.1,71.4,549.1,64.9z M556.8,44.9c0,13.3,0,26.4,0,39.7c8.7,0.4,17,0.1,21.9-8c4.6-7.6,4.5-15.9-0.3-23.4
	C573.4,45.3,565.3,44.5,556.8,44.9z"/>
<path class="st0" d="M318.7,73.5c0-2.5,0-5.1,0-7.6c0-2.5,1.5-2.8,3.6-2.8c2.1,0,3.6,0.4,3.6,2.9c0,5.3,0.1,10.6-0.1,15.8
	c0,1.1-0.9,2.5-1.8,3c-8.4,5.2-25.7,7-35.2-4.1c-11.7-13.6-4.2-35.7,13.4-39.2c7-1.4,13.7-0.4,20.2,2.1c0.9,0.3,2.2,1.4,2.1,1.9
	c-0.3,1.6-0.8,3-1.8,4.6c-0.9,0.2-2.1-0.6-2.9-1.3c-4-3.6-8.6-5.3-14-4.3c-7.4,1.4-12.1,6.3-13.2,14.6c-0.6,4.3-0.5,8.9,0.4,13.2
	c2.3,11,13.8,16.4,23.9,11.6c0.9-0.4,1.7-1.8,1.8-2.8C318.9,78.5,318.7,76,318.7,73.5z"/>
<path class="st0" d="M74.3,73c-9.2,0-9.2,0-12.3,8.6c-0.5,1.5-1.2,2.9-1.7,4.4c-0.4,1.2-0.7,2.2-2.8,1.9c-1.6-0.6-0.9-2.3-0.6-3.2
	c3.3-9.2,6.8-18.4,10.2-27.6c1.5-4,3.2-8.1,4.5-12.2c0.8-2.5,2.4-3.2,4.8-3.2c2.4,0,4.2,0.7,5.1,3.3c4.8,12.9,9.7,25.6,14.5,38.5
	c0.5,1.4,2,3.2-0.4,4.4c-2.3,1.1-6.1,0.1-6.9-1.9c-1.3-3.1-2.7-6.2-3.6-9.4c-0.8-2.9-2.4-3.5-5.3-3.5C77.9,72.9,76.1,73,74.3,73z
	 M82.3,69.4c-2.7-7.5-5.3-14.4-8-22c-2.7,7.7-5.3,14.7-7.8,22C71.9,69.4,76.9,69.4,82.3,69.4z"/>
<path class="st0" d="M512.3,60.4c0,4.4,0,8.9,0,13.3c0.1,7.4,4,11.5,10.9,11.6c7.3,0.1,12.3-4.2,12.5-11.4
	c0.3-8.9,0.1-17.8,0.2-26.6c0-0.7,0-1.5,0.1-2.2c0.2-2,1.2-3,2-3.1c2-0.2,2,1.7,2,3.2c-0.1,9.4,0,18.8-0.2,28.2
	c-0.2,9.2-5.6,14.7-14.8,15.3c-2.4,0.2-4.9,0.2-7.3-0.1c-7.4-0.9-12.6-6.2-12.9-13.7c-0.4-9.9-0.2-19.9-0.3-29.8
	c0-2.5,1.4-3.3,3.6-3.4c2.4,0,4.2,0.7,4.2,3.5C512.3,50.2,512.3,55.3,512.3,60.4C512.3,60.4,512.3,60.4,512.3,60.4z"/>
<path class="st0" d="M201.2,59.7c0-4.6,0.1-9.3,0-13.9c-0.1-2.8,0.9-4.2,3.8-4.2c2.8,0,3.9,1.2,3.9,4.1c-0.1,7.9-0.1,15.8,0,23.8
	c0,1.6,0.2,3.2,0.2,4.7c0.1,8.1,5.8,11.3,11.8,11.1c7-0.3,11.6-4.7,11.7-11.9c0.2-9.1,0.1-18.2,0.1-27.3c0-0.8-0.1-1.9,0-2.6
	c0.1-1.4,1.2-1.7,2.4-1.6c1.1,0.1,1.6,1.2,1.6,1.8c-0.1,11.1,0.1,22.2-0.7,33.2c-0.4,6.2-4.8,10.1-10.9,11.2
	c-3.8,0.6-7.8,0.8-11.6,0.2c-7.2-1.2-11.4-6.2-11.8-13.6C201.1,69.7,201.2,64.7,201.2,59.7C201.1,59.7,201.2,59.7,201.2,59.7z"/>
<circle class="st0" cx="517.6" cy="36.1" r="4"/>
<circle class="st0" cx="530.3" cy="36.1" r="4"/>
</svg>
