<?xml version="1.0" encoding="utf-8"?>
<!-- Generator: Adobe Illustrator 19.2.1, SVG Export Plug-In . SVG Version: 6.00 Build 0)  -->
<svg version="1.0" id="Layer_1" xmlns="http://www.w3.org/2000/svg" xmlns:xlink="http://www.w3.org/1999/xlink" x="0px" y="0px"
	 viewBox="0 0 192.8 34.5" style="enable-background:new 0 0 192.8 34.5;" xml:space="preserve">
<style type="text/css">
	.st0{fill:#FFFFFF;}
</style>
<g>
	<polygon class="st0" points="57.5,26.8 61.4,26.8 61.4,19.2 68.5,19.2 68.5,26.8 72.4,26.8 72.4,9.2 68.5,9.2 68.5,16 61.4,16 
		61.4,9.2 57.5,9.2 	"/>
	<path class="st0" d="M81.8,21.9c0,0.8-0.1,2.9-2.8,2.9c-1.1,0-2.1-0.3-2.1-1.6c0-1.3,1-1.6,2.1-1.9c1.1-0.2,2.3-0.2,2.9-0.7
		L81.8,21.9L81.8,21.9z M77.2,18c0.1-1.4,1-1.9,2.3-1.9c1.2,0,2.3,0.2,2.3,1.7c0,1.4-2,1.4-4.1,1.7c-2.2,0.3-4.3,1-4.3,3.9
		c0,2.6,1.9,3.8,4.3,3.8c1.6,0,3.2-0.4,4.3-1.6c0,0.4,0.1,0.8,0.2,1.2h3.5c-0.3-0.5-0.4-1.7-0.4-2.8v-6.6c0-3.1-3.1-3.6-5.6-3.6
		c-2.9,0-5.8,1-6,4.3L77.2,18L77.2,18z"/>
	<path class="st0" d="M86.4,31.3h3.5v-6.1l0,0c0.8,1.3,2.3,1.9,3.8,1.9c3.7,0,5.6-3.2,5.6-6.6c0-3.6-1.8-6.8-5.8-6.8
		c-1.6,0-3,0.6-3.8,2l0,0v-1.6h-3.3L86.4,31.3L86.4,31.3z M92.8,24.5c-2.3,0-3.1-2-3.1-4c0-2.1,0.7-4.1,3-4.1c2.2,0,3.1,2.1,3.1,4.1
		S95.1,24.5,92.8,24.5L92.8,24.5z"/>
	<path class="st0" d="M108.3,21.9c0,0.8-0.1,2.9-2.8,2.9c-1.1,0-2.1-0.3-2.1-1.6c0-1.3,1-1.6,2.1-1.9c1.1-0.2,2.3-0.2,2.9-0.7
		L108.3,21.9L108.3,21.9z M103.7,18c0.1-1.4,1-1.9,2.3-1.9c1.2,0,2.3,0.2,2.3,1.7c0,1.4-2,1.4-4.1,1.7c-2.2,0.3-4.3,1-4.3,3.9
		c0,2.6,1.9,3.8,4.3,3.8c1.6,0,3.2-0.4,4.3-1.6c0,0.4,0.1,0.8,0.2,1.2h3.5c-0.3-0.5-0.4-1.7-0.4-2.8v-6.6c0-3.1-3.1-3.6-5.6-3.6
		c-2.9,0-5.8,1-6,4.3L103.7,18L103.7,18z"/>
	<path class="st0" d="M125.6,14.1h-3.3v1.7l0,0c-0.8-1.5-2.1-2-3.8-2c-3.6,0-5.5,3-5.5,6.3c0,3.5,1.6,6.4,5.4,6.4
		c1.5,0,3.1-0.6,3.8-2l0,0v1.7c0,1.8-0.9,3.2-2.8,3.2c-1.2,0-2.3-0.4-2.6-1.7h-3.5c0.2,2.9,3.1,4.1,5.6,4.1c5.9,0,6.6-3.5,6.6-5.6
		L125.6,14.1L125.6,14.1z M119.3,23.8c-2.1,0-2.8-2-2.8-3.8c0-1.9,0.9-3.6,2.8-3.6c2.3,0,3,1.8,3,3.9
		C122.3,22.1,121.3,23.8,119.3,23.8L119.3,23.8z"/>
	<polygon class="st0" points="126.6,21.6 134,21.6 134,18.6 126.6,18.6 	"/>
	<polygon class="st0" points="134.9,26.8 147.4,26.8 147.4,23.5 138.8,23.5 138.8,9.2 134.9,9.2 	"/>
	<polygon class="st0" points="148.2,26.8 151.7,26.8 151.7,9.2 148.2,9.2 	"/>
	<path class="st0" d="M152.5,20.4c0,4,2.6,6.7,6.6,6.7s6.6-2.7,6.6-6.7c0-4.1-2.6-6.7-6.6-6.7C155.1,13.7,152.5,16.4,152.5,20.4
		L152.5,20.4z M156,20.4c0-2,0.7-4.1,3.1-4.1c2.4,0,3.1,2,3.1,4.1c0,2-0.7,4.1-3.1,4.1S156,22.5,156,20.4L156,20.4z"/>
	<path class="st0" d="M177.9,14.1h-3.6l-2.8,8.7l0,0l-2.9-8.7h-3.7l4.5,11.9c0.4,1,0,2.3-1.2,2.4c-0.7,0-1.4-0.1-2-0.1v2.9
		c0.7,0.1,1.4,0.1,2.1,0.1c2.4,0,3.6-0.8,4.4-2.9L177.9,14.1L177.9,14.1z"/>
	<path class="st0" d="M186.6,26.8h3.3V9.2h-3.5v6.4h-0.1l0,0c-0.8-1.3-2.3-1.9-3.8-1.9c-3.7,0-5.6,3.2-5.6,6.6
		c0,3.5,1.9,6.8,5.7,6.8c1.6,0,3.1-0.6,3.9-2l0,0L186.6,26.8L186.6,26.8z M186.6,20.4c0,2.1-0.7,4.1-3,4.1c-2.2,0-3.1-2.1-3.1-4.1
		c0-2.1,0.8-4.1,3.1-4.1C185.8,16.4,186.6,18.3,186.6,20.4L186.6,20.4z"/>
	<polygon class="st0" points="14.7,3.1 27.1,3.1 19.1,16.2 21.6,16.2 29.5,3.1 42.3,3.1 34.3,16 42.7,16 39.3,22.3 30.4,22.3 
		37.3,31.2 24.5,31.2 18.1,22.3 15.7,22.3 22,31.2 9.7,31.2 2.8,21.9 	"/>
</g>
</svg>
